<?xml version="1.0" encoding="utf-8"?>
<!-- Generator: Adobe Illustrator 26.1.0, SVG Export Plug-In . SVG Version: 6.00 Build 0)  -->
<svg version="1.1" xmlns="http://www.w3.org/2000/svg" xmlns:xlink="http://www.w3.org/1999/xlink" x="0px" y="0px"
	 viewBox="0 0 500 500" style="enable-background:new 0 0 500 500;" xml:space="preserve">
<style type="text/css">
	.st0{fill:#C6C5F0;}
	.st1{opacity:0.38;fill:#8C9EF2;}
	.st2{fill:#E5EBFC;}
	.st3{fill:none;stroke:#FFFFFF;stroke-miterlimit:10;}
	.st4{fill:#CCD7F2;}
	.st5{fill:#FFFFFF;}
	.st6{fill:#737072;}
	.st7{fill:none;stroke:#E5EBFC;stroke-width:2;stroke-miterlimit:10;}
	.st8{fill:#F68A73;}
	.st9{fill:#D15332;}
	.st10{font-family:'Montserrat-Bold';}
	.st11{font-size:13.8711px;}
	.st12{clip-path:url(#SVGID_00000130644278513082297330000003213111409825454006_);}
	.st13{fill:#FFC4C2;}
	.st14{fill:#FFADAA;}
	.st15{fill:#232323;}
	.st16{fill:none;stroke:#A34127;stroke-width:3.2902;stroke-miterlimit:10;}
	.st17{fill:#6D80D9;}
	.st18{fill:#5868B0;}
	.st19{fill:#8C9EF2;}
	.st20{fill:none;stroke:#FFFFFF;stroke-width:0.9663;stroke-linecap:round;stroke-linejoin:round;stroke-miterlimit:10;}
	.st21{fill:none;stroke:#FFFFFF;stroke-width:1.3978;stroke-linecap:round;stroke-linejoin:round;stroke-miterlimit:10;}
	.st22{fill:none;stroke:#FFFFFF;stroke-width:1.3424;stroke-linecap:round;stroke-linejoin:round;stroke-miterlimit:10;}
</style>
<g id="BACKGROUND">
</g>
<g id="OBJECTS">
	<g>
		<path class="st0" d="M440.77,278.3c-7.05-17.81-9.79-35.4-4.53-57.75c4.28-18.18,10.96-35.96,12.18-54.59
			c7.1-108.57-58.02-141.48-134.98-115.57c-24.66,8.3-79.22,24.87-105.76,26.88c-48.8,3.69-80.47-11.68-108.51-12.09
			c-49.9-0.73-92.89,67.02-66.05,111.77c8.72,14.53,14.57,31.72,25.79,44.42c23.75,26.88,32.49,62.32,23.41,97.27
			C76.64,340.5,67.45,361.57,64.63,384c-5.76,45.9,27.33,83.25,73.21,84.31c43.9,1.01,81.28-25.78,120.45-41.5
			c19.39-7.78,39.66-13.2,60.72-11.34c25.17,2.22,47.82,15.04,73.43,16.37c32.39,1.69,65.83-14.69,77.61-46.24
			c10.68-28.59-2.64-55.21-16.1-80.1C448.8,295.98,444.25,287.11,440.77,278.3z"/>
		<path class="st1" d="M440.77,278.3c-5.07-12.82-7.89-25.53-7.13-39.97c-5.08,8.65-7.47,18.5-6.42,28.98
			c1.5,15.02,9.41,28.17,16.22,41.29c6.55,12.63,12.17,26.08,11.14,40.6c-0.95,13.33-6.4,26.27-15.96,35.68
			c-16.08,15.84-39.03,20.75-58.93,29.87c-6.25,2.86-12.71,6.29-17.7,11.16c9.91,2.89,19.93,5.38,30.46,5.93
			c32.39,1.69,65.83-14.69,77.61-46.24c10.68-28.59-2.64-55.21-16.1-80.1C448.8,295.98,444.25,287.11,440.77,278.3z"/>
		<g>
			<g>
				<ellipse class="st2" cx="121.02" cy="63" rx="52.14" ry="18.66"/>
				<path class="st3" d="M173.13,62.55c-24.62,21.84-94.32,8.41-90.35-12.23"/>
			</g>
			<g>
				<ellipse class="st2" cx="422.99" cy="100.5" rx="52.14" ry="18.66"/>
				<path class="st3" d="M475.1,100.05c-24.62,21.84-94.32,8.41-90.35-12.23"/>
			</g>
			<g>
				<ellipse class="st2" cx="327.43" cy="50.32" rx="52.14" ry="18.66"/>
				<path class="st3" d="M379.54,49.87c-18.94-11.28-44.13-15.36-90.35-12.23c0,0,49.09-4.54,78.27,25.46"/>
			</g>
		</g>
		<g>
			<path class="st4" d="M393.86,312.42l-0.05-219.44c0-4.92-3.99-8.9-8.91-8.9l-14.94,0l-7.2,0L73.91,84.15l-7.69,0l-17.93,0
				c-4.92,0-8.9,3.99-8.9,8.91l0.05,219.44c0,4.92,3.99,8.9,8.91,8.9l336.62-0.08C389.88,321.32,393.86,317.34,393.86,312.42z"/>
			<g>
				<path class="st5" d="M389.89,317.43l-336.62,0.08c-4.92,0-8.9-3.98-8.91-8.9L44.32,89.17c0-4.92,3.98-8.9,8.9-8.91l336.62-0.08
					c4.92,0,8.9,3.98,8.91,8.9l0.05,219.44C398.79,313.44,394.81,317.43,389.89,317.43z"/>
				<rect x="52.55" y="122.78" class="st6" width="341.31" height="1.13"/>
				<g>
					<line class="st7" x1="331.36" y1="139.76" x2="386.82" y2="139.76"/>
					<line class="st7" x1="331.36" y1="162.56" x2="386.82" y2="162.56"/>
					<line class="st7" x1="331.36" y1="185.36" x2="386.82" y2="185.36"/>
					<line class="st7" x1="331.36" y1="208.16" x2="386.82" y2="208.16"/>
					<line class="st7" x1="331.36" y1="230.96" x2="386.82" y2="230.96"/>
					<line class="st7" x1="331.36" y1="253.76" x2="386.82" y2="253.76"/>
					<line class="st7" x1="331.36" y1="276.56" x2="386.82" y2="276.56"/>
					<line class="st7" x1="331.36" y1="299.36" x2="386.82" y2="299.36"/>
				</g>
				<g>
					<rect x="171.39" y="176.59" class="st2" width="24.76" height="23.26"/>
					<rect x="171.4" y="202.2" class="st2" width="24.76" height="23.26"/>
					<rect x="171.4" y="227.82" class="st2" width="24.76" height="23.26"/>
				</g>
				<g>
					<rect x="131.78" y="176.6" class="st2" width="24.76" height="23.26"/>
					<rect x="131.79" y="202.21" class="st2" width="24.76" height="23.26"/>
					<rect x="131.79" y="227.83" class="st2" width="24.76" height="23.26"/>
				</g>
				<g>
					<rect x="92.17" y="176.61" class="st2" width="24.76" height="23.26"/>
					<rect x="171.38" y="150.97" class="st2" width="24.76" height="23.26"/>
					<rect x="131.77" y="150.98" class="st2" width="24.76" height="23.26"/>
					<rect x="92.17" y="150.99" class="st2" width="24.76" height="23.26"/>
					<rect x="92.18" y="202.22" class="st2" width="24.76" height="23.26"/>
					<rect x="92.19" y="227.84" class="st2" width="24.76" height="23.26"/>
					<rect x="92.19" y="253.45" class="st2" width="24.76" height="23.26"/>
				</g>
				<g>
					<rect x="52.56" y="176.62" class="st2" width="24.76" height="23.26"/>
					<rect x="52.56" y="151" class="st2" width="24.76" height="23.26"/>
					<rect x="52.57" y="202.23" class="st2" width="24.76" height="23.26"/>
					<rect x="52.58" y="227.85" class="st2" width="24.76" height="23.26"/>
					<rect x="52.58" y="253.46" class="st2" width="24.76" height="23.26"/>
				</g>
				<g>
					<rect x="210.99" y="150.96" class="st2" width="24.76" height="23.26"/>
					<rect x="211" y="176.58" class="st2" width="24.76" height="23.26"/>
					<rect x="211.01" y="202.19" class="st2" width="24.76" height="23.26"/>
					<rect x="211.01" y="227.8" class="st2" width="24.76" height="23.26"/>
				</g>
				<g>
					<rect x="250.6" y="150.95" class="st8" width="24.76" height="23.26"/>
					<rect x="250.61" y="176.57" class="st2" width="24.76" height="23.26"/>
					<rect x="250.61" y="202.18" class="st2" width="24.76" height="23.26"/>
					<rect x="250.62" y="227.79" class="st2" width="24.76" height="23.26"/>
				</g>
				<g>
					<rect x="290.21" y="150.94" class="st2" width="24.76" height="23.26"/>
					<rect x="290.22" y="176.56" class="st2" width="24.76" height="23.26"/>
					<rect x="290.22" y="202.17" class="st2" width="24.76" height="23.26"/>
					<rect x="290.23" y="227.78" class="st2" width="24.76" height="23.26"/>
				</g>
				<g>
					<g>
						<path class="st8" d="M63.73,132.69c-0.19,0.15-0.28,0.36-0.28,0.61c0,0.25,0.11,0.45,0.34,0.6c0.23,0.15,0.76,0.33,1.58,0.53
							c0.83,0.2,1.47,0.51,1.93,0.91c0.46,0.41,0.68,1,0.68,1.78c0,0.78-0.29,1.41-0.88,1.9c-0.59,0.49-1.36,0.73-2.31,0.73
							c-1.38,0-2.62-0.51-3.72-1.53l1.16-1.42c0.94,0.82,1.81,1.23,2.6,1.23c0.36,0,0.64-0.08,0.84-0.23c0.2-0.15,0.3-0.36,0.3-0.62
							c0-0.26-0.11-0.47-0.32-0.62c-0.22-0.16-0.64-0.31-1.28-0.47c-1.01-0.24-1.75-0.55-2.22-0.94c-0.47-0.39-0.7-0.99-0.7-1.82
							c0-0.83,0.3-1.46,0.89-1.91c0.59-0.45,1.33-0.67,2.22-0.67c0.58,0,1.16,0.1,1.74,0.3c0.58,0.2,1.09,0.48,1.52,0.85l-0.98,1.42
							c-0.76-0.57-1.54-0.86-2.34-0.86C64.17,132.46,63.92,132.54,63.73,132.69z"/>
					</g>
					<g>
						<path class="st6" d="M108.43,134.16l-2.35,4.76l-1.16,0l-2.34-4.76l0,5.48l-1.94,0l0-8.71l2.63,0l2.24,4.78l2.25-4.78l2.61,0
							l0,8.7l-1.94,0L108.43,134.16z"/>
					</g>
					<g>
						<path class="st6" d="M145.03,132.61l0,7.02l-1.94,0l0-7.02l-2.47,0l0-1.68l6.87,0l0,1.68L145.03,132.61z"/>
					</g>
					<g>
						<path class="st6" d="M182.32,135.93l1.54-5.01l2.03,0l1.53,5.01l1.73-5.01l2.11,0l-3.04,8.71l-1.44,0l-1.91-6.05l-1.89,6.05
							l-1.45,0l-3.04-8.7l2.11,0L182.32,135.93z"/>
					</g>
					<g>
						<path class="st6" d="M224.49,132.59l0,7.02l-1.94,0l0-7.02l-2.47,0l0-1.68l6.87,0l0,1.68L224.49,132.59z"/>
					</g>
					<g>
						<path class="st6" d="M266.59,130.9l0,1.71l-4.03,0l0,1.88l3.84,0l0,1.71l-3.84,0l0,3.41l-1.94,0l0-8.71L266.59,130.9z"/>
					</g>
					<g>
						<path class="st6" d="M302.1,132.63c-0.19,0.15-0.28,0.36-0.28,0.61c0,0.25,0.11,0.45,0.34,0.6c0.23,0.15,0.76,0.33,1.58,0.53
							c0.83,0.2,1.47,0.51,1.92,0.91c0.46,0.41,0.68,1,0.68,1.78c0,0.78-0.29,1.41-0.88,1.9c-0.59,0.49-1.36,0.73-2.31,0.73
							c-1.38,0-2.62-0.51-3.72-1.53l1.16-1.42c0.94,0.82,1.81,1.23,2.6,1.23c0.36,0,0.64-0.08,0.84-0.23c0.2-0.15,0.3-0.36,0.3-0.62
							c0-0.26-0.11-0.47-0.32-0.62c-0.21-0.16-0.64-0.31-1.28-0.47c-1.01-0.24-1.75-0.55-2.22-0.94c-0.47-0.39-0.7-0.99-0.7-1.82
							c0-0.83,0.3-1.46,0.89-1.91c0.59-0.45,1.33-0.67,2.22-0.67c0.58,0,1.16,0.1,1.74,0.3c0.58,0.2,1.09,0.48,1.52,0.85l-0.98,1.42
							c-0.76-0.57-1.54-0.86-2.34-0.86C302.54,132.4,302.28,132.47,302.1,132.63z"/>
					</g>
					<text transform="matrix(1 -2.600000e-04 2.600000e-04 1 63.4134 115.2281)" class="st9 st10 st11">NOVEMBER</text>
					<g>
						<path class="st8" d="M60.98,157.5l4.28,0.02l-0.05,10.57l-2.27-0.01l0.04-8.56l-2.01-0.01L60.98,157.5z"/>
					</g>
					<g>
						<path class="st6" d="M105.68,161.85c0.27-0.38,0.4-0.74,0.41-1.09c0-0.35-0.11-0.65-0.34-0.89c-0.23-0.24-0.53-0.36-0.89-0.36
							c-0.67,0-1.3,0.47-1.9,1.41l-1.89-1.13c0.5-0.76,1.04-1.34,1.64-1.73c0.59-0.39,1.34-0.58,2.26-0.58c0.91,0,1.71,0.3,2.4,0.88
							c0.69,0.58,1.03,1.37,1.02,2.37c0,0.55-0.15,1.07-0.43,1.56c-0.28,0.5-0.79,1.13-1.54,1.9l-1.92,1.97l4.17,0.02l-0.01,2.12
							l-7.45-0.04l0.01-1.76l3.12-3.16C104.97,162.74,105.42,162.23,105.68,161.85z"/>
					</g>
					<g>
						<path class="st6" d="M140.98,159.93l0.01-2.01l6.47,0.03l-0.01,1.63l-2.18,2.45c0.85,0.14,1.5,0.5,1.96,1.08
							c0.46,0.57,0.69,1.23,0.69,1.98c-0.01,1.11-0.39,1.98-1.14,2.6c-0.76,0.63-1.72,0.94-2.89,0.93
							c-1.17-0.01-2.35-0.43-3.55-1.26l0.98-1.87c0.99,0.71,1.89,1.07,2.67,1.07c0.47,0,0.86-0.11,1.17-0.34
							c0.31-0.23,0.46-0.56,0.47-1c0-0.44-0.17-0.79-0.52-1.05c-0.35-0.26-0.84-0.39-1.46-0.39c-0.33,0-0.8,0.09-1.41,0.28
							l0.01-1.74l2.04-2.38L140.98,159.93z"/>
					</g>
					<g>
						<path class="st6" d="M184.1,164.14l0.01-1.85l2.27,0.01l-0.01,1.85l1.19,0.01l-0.01,2.04l-1.19-0.01l-0.01,2.53l-2.27-0.01
							l0.01-2.53l-4.25-0.02l0.01-1.8l3.8-6.23l2.57,0.01l-3.62,5.99L184.1,164.14z"/>
					</g>
					<g>
						<path class="st6" d="M226.49,158.36l-0.01,2.04l-4.17-0.02l-0.01,1.77c0.31-0.09,0.67-0.13,1.07-0.13
							c1.02,0.01,1.89,0.32,2.63,0.93c0.73,0.62,1.1,1.45,1.09,2.49c-0.01,1.04-0.39,1.9-1.15,2.58c-0.77,0.68-1.71,1.01-2.83,1.01
							c-1.43-0.01-2.62-0.54-3.58-1.61l1.25-1.72c0.09,0.09,0.21,0.2,0.36,0.34c0.15,0.13,0.43,0.31,0.83,0.53
							c0.4,0.22,0.8,0.33,1.21,0.33c0.4,0,0.76-0.12,1.07-0.36c0.32-0.24,0.47-0.6,0.48-1.07c0-0.47-0.17-0.84-0.5-1.1
							c-0.34-0.26-0.77-0.39-1.31-0.39c-0.53,0-1.16,0.19-1.86,0.57l-0.98-1.06l0.03-5.16L226.49,158.36z"/>
					</g>
					<g>
						<path class="st6" d="M263.74,160.34c-0.66,0-1.16,0.21-1.52,0.65c-0.36,0.44-0.58,1.03-0.67,1.79
							c0.66-0.42,1.36-0.63,2.09-0.63c0.99,0.01,1.81,0.33,2.47,0.98c0.66,0.65,0.98,1.51,0.98,2.58c-0.01,1.07-0.36,1.93-1.08,2.57
							c-0.71,0.64-1.61,0.96-2.69,0.95c-0.75,0-1.39-0.15-1.94-0.44c-0.55-0.29-0.97-0.69-1.27-1.21c-0.6-1-0.9-2.25-0.89-3.76
							c0-0.97,0.13-1.82,0.37-2.55c0.24-0.73,0.57-1.31,0.99-1.73c0.81-0.84,1.81-1.26,3-1.25c0.49,0,0.96,0.08,1.41,0.23
							c0.45,0.15,0.79,0.3,1.03,0.45c0.24,0.15,0.51,0.35,0.8,0.58l-1.13,1.66c-0.06-0.06-0.15-0.14-0.26-0.24
							c-0.12-0.1-0.34-0.23-0.69-0.4C264.39,160.42,264.06,160.34,263.74,160.34z M263.41,164.14c-0.47,0-0.86,0.14-1.18,0.41
							c-0.32,0.28-0.48,0.64-0.48,1.08c0,0.44,0.15,0.82,0.45,1.15c0.3,0.32,0.68,0.48,1.13,0.48c0.45,0,0.83-0.14,1.14-0.42
							c0.3-0.28,0.46-0.65,0.46-1.09c0-0.45-0.13-0.83-0.4-1.14C264.25,164.3,263.88,164.15,263.41,164.14z"/>
					</g>
					<g>
						<path class="st6" d="M298.48,162.12l0.02-3.39l7.64,0.04l-0.01,1.78l-4.33,8.76l-2.57-0.01l4.13-8.52l-2.66-0.01l-0.01,1.36
							L298.48,162.12z"/>
					</g>
					<g>
						<path class="st8" d="M63.06,183.31c0.7-0.55,1.58-0.82,2.63-0.82c1.05,0.01,1.92,0.29,2.61,0.85
							c0.69,0.56,1.04,1.24,1.03,2.05c0,0.81-0.32,1.51-0.95,2.09c0.87,0.68,1.31,1.57,1.3,2.67c0,0.93-0.38,1.71-1.13,2.34
							c-0.75,0.63-1.72,0.94-2.92,0.94c-1.2-0.01-2.17-0.33-2.91-0.97c-0.74-0.64-1.11-1.42-1.11-2.35c0.01-1.1,0.45-1.98,1.33-2.66
							c-0.63-0.6-0.95-1.3-0.94-2.11C62.01,184.54,62.36,183.86,63.06,183.31z M64.5,191.1c0.35,0.24,0.73,0.36,1.15,0.36
							c0.41,0,0.8-0.11,1.15-0.35c0.35-0.24,0.53-0.58,0.53-1.04c0-0.45-0.17-0.8-0.51-1.05c-0.34-0.24-0.73-0.37-1.16-0.37
							c-0.43,0-0.82,0.12-1.17,0.36c-0.34,0.24-0.52,0.59-0.52,1.04C63.97,190.51,64.15,190.86,64.5,191.1z M64.66,186.48
							c0.29,0.24,0.62,0.36,1,0.37c0.38,0,0.72-0.12,1.01-0.36c0.29-0.24,0.43-0.54,0.44-0.9c0-0.36-0.14-0.66-0.42-0.9
							c-0.28-0.24-0.62-0.37-1.01-0.37c-0.39,0-0.73,0.12-1.01,0.36c-0.28,0.24-0.43,0.54-0.43,0.9
							C64.24,185.93,64.38,186.23,64.66,186.48z"/>
					</g>
					<g>
						<path class="st6" d="M104.42,191.6c0.66,0,1.16-0.21,1.52-0.65c0.36-0.44,0.58-1.03,0.67-1.79c-0.65,0.43-1.34,0.64-2.09,0.64
							c-0.99-0.01-1.81-0.33-2.47-0.99s-0.98-1.51-0.98-2.58c0.01-1.07,0.37-1.93,1.08-2.57c0.71-0.65,1.61-0.97,2.69-0.96
							c0.74,0,1.39,0.15,1.94,0.44c0.55,0.29,0.98,0.69,1.29,1.21c0.59,1,0.88,2.25,0.87,3.76c-0.01,0.97-0.13,1.82-0.37,2.55
							c-0.24,0.73-0.56,1.31-0.97,1.73c-0.83,0.84-1.84,1.26-3.02,1.25c-0.49,0-0.97-0.08-1.42-0.23c-0.45-0.15-0.79-0.3-1.03-0.44
							c-0.23-0.15-0.5-0.34-0.8-0.57l1.19-1.66c0.07,0.06,0.16,0.14,0.28,0.23c0.12,0.1,0.34,0.23,0.67,0.39
							C103.81,191.51,104.12,191.6,104.42,191.6z M104.76,187.79c0.47,0,0.86-0.13,1.17-0.4c0.31-0.27,0.47-0.63,0.47-1.07
							c0-0.44-0.15-0.83-0.45-1.15c-0.3-0.32-0.68-0.49-1.13-0.49c-0.45,0-0.83,0.14-1.12,0.43c-0.29,0.29-0.43,0.65-0.44,1.09
							c0,0.44,0.13,0.82,0.39,1.13C103.93,187.63,104.29,187.79,104.76,187.79z"/>
					</g>
					<g>
						<path class="st6" d="M135.88,183.09l4.28,0.02l-0.05,10.57l-2.27-0.01l0.04-8.56l-2.01-0.01L135.88,183.09z"/>
						<path class="st6" d="M146.67,193.84c-1.46-0.01-2.55-0.51-3.27-1.51c-0.72-1-1.08-2.32-1.07-3.98
							c0.01-1.66,0.38-2.98,1.11-3.97c0.73-0.99,1.83-1.48,3.29-1.47c1.46,0.01,2.55,0.51,3.27,1.5c0.72,1,1.08,2.33,1.07,3.98
							c-0.01,1.66-0.38,2.98-1.11,3.97C149.23,193.36,148.13,193.85,146.67,193.84z M145.15,185.82c-0.34,0.64-0.51,1.49-0.51,2.55
							c-0.01,1.06,0.16,1.91,0.49,2.56c0.33,0.65,0.85,0.97,1.55,0.98c0.71,0,1.23-0.32,1.56-0.96c0.34-0.64,0.51-1.5,0.51-2.55
							c0.01-1.06-0.16-1.91-0.49-2.56c-0.33-0.65-0.85-0.97-1.55-0.98C146.01,184.86,145.49,185.18,145.15,185.82z"/>
					</g>
					<g>
						<path class="st6" d="M178.27,183.02l4.28,0.02l-0.05,10.57l-2.27-0.01l0.04-8.56l-2.01-0.01L178.27,183.02z"/>
						<path class="st6" d="M184.37,183.05l4.28,0.02l-0.05,10.57l-2.27-0.01l0.04-8.56l-2.01-0.01L184.37,183.05z"/>
					</g>
					<g>
						<path class="st6" d="M214.7,183.5l4.28,0.02l-0.05,10.57l-2.27-0.01l0.04-8.56l-2.01-0.01L214.7,183.5z"/>
						<path class="st6" d="M225.62,187.68c0.27-0.38,0.4-0.74,0.41-1.09c0-0.35-0.11-0.65-0.34-0.89c-0.23-0.24-0.53-0.36-0.89-0.36
							c-0.67,0-1.3,0.47-1.9,1.41l-1.89-1.13c0.5-0.76,1.04-1.34,1.64-1.73c0.59-0.39,1.34-0.58,2.26-0.58c0.91,0,1.71,0.3,2.4,0.88
							c0.69,0.58,1.03,1.37,1.02,2.37c0,0.55-0.15,1.07-0.43,1.56c-0.28,0.5-0.79,1.13-1.54,1.91l-1.92,1.97l4.17,0.02l-0.01,2.12
							l-7.45-0.04l0.01-1.76l3.12-3.16C224.9,188.56,225.35,188.06,225.62,187.68z"/>
					</g>
					<g>
						<path class="st6" d="M254.16,183.71l4.28,0.02l-0.05,10.57l-2.27-0.01l0.04-8.56l-2.01-0.01L254.16,183.71z"/>
						<path class="st6" d="M260.91,185.75l0.01-2.01l6.47,0.03l-0.01,1.63l-2.17,2.45c0.85,0.14,1.5,0.5,1.96,1.08
							c0.46,0.57,0.69,1.23,0.69,1.98c-0.01,1.11-0.39,1.98-1.14,2.6c-0.76,0.63-1.72,0.94-2.89,0.93
							c-1.17-0.01-2.35-0.43-3.55-1.26l0.98-1.87c0.99,0.71,1.89,1.07,2.67,1.07c0.47,0,0.86-0.11,1.17-0.34
							c0.31-0.23,0.46-0.56,0.47-1c0-0.44-0.17-0.79-0.52-1.05c-0.35-0.26-0.84-0.39-1.46-0.39c-0.33,0-0.8,0.09-1.41,0.28
							l0.01-1.74l2.04-2.38L260.91,185.75z"/>
					</g>
					<g>
						<path class="st6" d="M293.64,183.91l4.28,0.02l-0.05,10.57l-2.27-0.01l0.04-8.56l-2.01-0.01L293.64,183.91z"/>
						<path class="st6" d="M304.03,189.97l0.01-1.85l2.27,0.01l-0.01,1.85l1.19,0.01l-0.01,2.04l-1.19-0.01l-0.01,2.53l-2.27-0.01
							l0.01-2.53l-4.25-0.02l0.01-1.8l3.8-6.23l2.57,0.01l-3.62,5.99L304.03,189.97z"/>
					</g>
					<g>
						<path class="st8" d="M56.95,208.68l4.28,0.02l-0.05,10.57l-2.27-0.01l0.04-8.56l-2.01-0.01L56.95,208.68z"/>
						<path class="st8" d="M70.23,208.75l-0.01,2.04l-4.17-0.02l-0.01,1.77c0.31-0.09,0.67-0.13,1.07-0.13
							c1.02,0.01,1.89,0.32,2.63,0.93c0.73,0.62,1.1,1.45,1.09,2.49s-0.39,1.9-1.15,2.58c-0.77,0.68-1.71,1.01-2.83,1.01
							c-1.43-0.01-2.62-0.54-3.58-1.61l1.25-1.72c0.09,0.09,0.21,0.2,0.36,0.34c0.15,0.13,0.43,0.31,0.83,0.53
							c0.4,0.22,0.8,0.33,1.21,0.33c0.4,0,0.76-0.12,1.07-0.36c0.32-0.24,0.47-0.6,0.48-1.07c0-0.47-0.17-0.84-0.5-1.1
							c-0.34-0.26-0.77-0.39-1.31-0.39c-0.53,0-1.16,0.19-1.86,0.57l-0.98-1.06l0.03-5.16L70.23,208.75z"/>
					</g>
					<g>
						<path class="st6" d="M96.51,208.88l4.28,0.02l-0.05,10.57l-2.27-0.01l0.04-8.56l-2.01-0.01L96.51,208.88z"/>
						<path class="st6" d="M107.48,210.73c-0.66,0-1.16,0.21-1.52,0.65c-0.36,0.44-0.58,1.03-0.67,1.79
							c0.66-0.42,1.36-0.63,2.09-0.63c0.99,0.01,1.81,0.33,2.47,0.98c0.66,0.65,0.98,1.51,0.98,2.58c-0.01,1.07-0.36,1.93-1.08,2.57
							c-0.71,0.64-1.61,0.96-2.69,0.95c-0.75,0-1.39-0.15-1.94-0.44c-0.55-0.29-0.97-0.69-1.27-1.21c-0.6-1-0.9-2.25-0.89-3.76
							c0.01-0.97,0.13-1.82,0.37-2.55c0.24-0.73,0.57-1.31,0.99-1.73c0.81-0.84,1.81-1.26,3-1.25c0.49,0,0.96,0.08,1.41,0.23
							c0.45,0.15,0.79,0.3,1.03,0.45c0.24,0.15,0.51,0.35,0.8,0.58l-1.13,1.66c-0.06-0.06-0.15-0.14-0.26-0.24
							c-0.12-0.1-0.34-0.23-0.69-0.4C108.13,210.81,107.8,210.73,107.48,210.73z M107.15,214.54c-0.47,0-0.86,0.14-1.18,0.41
							c-0.32,0.28-0.48,0.64-0.48,1.08c0,0.44,0.15,0.82,0.45,1.15c0.3,0.32,0.68,0.48,1.13,0.48c0.45,0,0.83-0.14,1.14-0.42
							c0.3-0.28,0.46-0.65,0.46-1.09c0-0.45-0.13-0.83-0.4-1.14C107.99,214.69,107.62,214.54,107.15,214.54z"/>
					</g>
					<g>
						<path class="st6" d="M135.9,209.09l4.28,0.02l-0.05,10.57l-2.27-0.01l0.04-8.56l-2.01-0.01L135.9,209.09z"/>
						<path class="st6" d="M142.22,212.51l0.02-3.39l7.64,0.04l-0.01,1.78l-4.33,8.76l-2.57-0.01l4.13-8.52l-2.66-0.01l-0.01,1.36
							L142.22,212.51z"/>
					</g>
					<g>
						<path class="st6" d="M175.51,209.29l4.28,0.02l-0.05,10.57l-2.27-0.01l0.04-8.56l-2.01-0.01L175.51,209.29z"/>
						<path class="st6" d="M183.36,209.93c0.7-0.55,1.58-0.82,2.63-0.82c1.05,0.01,1.92,0.29,2.61,0.85
							c0.69,0.56,1.04,1.24,1.03,2.05c0,0.81-0.32,1.51-0.95,2.09c0.87,0.68,1.31,1.57,1.3,2.67c0,0.93-0.38,1.71-1.13,2.34
							c-0.75,0.63-1.72,0.94-2.92,0.94c-1.2-0.01-2.17-0.33-2.91-0.97c-0.74-0.64-1.11-1.42-1.11-2.35c0.01-1.1,0.45-1.98,1.33-2.66
							c-0.63-0.6-0.95-1.3-0.94-2.11C182.31,211.16,182.66,210.48,183.36,209.93z M184.8,217.71c0.35,0.24,0.73,0.36,1.15,0.36
							c0.41,0,0.8-0.11,1.15-0.35c0.35-0.23,0.53-0.58,0.54-1.03c0-0.45-0.17-0.8-0.51-1.05c-0.34-0.24-0.73-0.37-1.16-0.37
							c-0.43,0-0.82,0.12-1.17,0.36c-0.34,0.24-0.52,0.59-0.52,1.04C184.27,217.13,184.45,217.48,184.8,217.71z M184.96,213.09
							c0.29,0.24,0.62,0.37,1,0.37c0.38,0,0.72-0.12,1.01-0.36c0.29-0.24,0.43-0.54,0.44-0.9c0-0.36-0.14-0.66-0.42-0.9
							c-0.28-0.24-0.62-0.36-1.01-0.37c-0.39,0-0.73,0.12-1.01,0.36c-0.28,0.24-0.43,0.54-0.43,0.9
							C184.54,212.55,184.68,212.85,184.96,213.09z"/>
					</g>
					<g>
						<path class="st6" d="M214.97,209.5l4.28,0.02l-0.05,10.57l-2.27-0.01l0.04-8.56l-2.01-0.01L214.97,209.5z"/>
						<path class="st6" d="M224.71,218.22c0.66,0,1.16-0.21,1.52-0.65c0.36-0.44,0.58-1.03,0.67-1.79
							c-0.65,0.43-1.34,0.64-2.09,0.64c-0.99-0.01-1.81-0.33-2.47-0.99c-0.66-0.65-0.98-1.52-0.98-2.58
							c0.01-1.07,0.37-1.93,1.08-2.57c0.71-0.65,1.61-0.97,2.69-0.96c0.75,0,1.39,0.15,1.94,0.44c0.55,0.29,0.98,0.69,1.29,1.21
							c0.59,1,0.88,2.25,0.87,3.76c0,0.97-0.13,1.82-0.37,2.55c-0.24,0.73-0.56,1.31-0.97,1.73c-0.83,0.84-1.84,1.26-3.02,1.26
							c-0.49,0-0.97-0.08-1.42-0.23c-0.45-0.15-0.79-0.3-1.03-0.44c-0.23-0.15-0.5-0.34-0.8-0.57l1.19-1.66
							c0.07,0.06,0.16,0.14,0.28,0.23c0.12,0.1,0.34,0.23,0.67,0.39C224.11,218.13,224.42,218.21,224.71,218.22z M225.06,214.4
							c0.47,0,0.86-0.13,1.17-0.4c0.31-0.27,0.47-0.63,0.47-1.07c0-0.44-0.15-0.83-0.45-1.15c-0.3-0.32-0.68-0.49-1.13-0.49
							c-0.45,0-0.82,0.14-1.11,0.42c-0.29,0.29-0.43,0.65-0.44,1.09c0,0.44,0.13,0.82,0.39,1.13
							C224.22,214.25,224.59,214.4,225.06,214.4z"/>
					</g>
					<g>
						<path class="st6" d="M259.78,213.85c0.27-0.38,0.41-0.74,0.41-1.09c0-0.35-0.11-0.65-0.34-0.89
							c-0.23-0.24-0.53-0.36-0.89-0.36c-0.67,0-1.3,0.47-1.9,1.41l-1.89-1.13c0.5-0.76,1.04-1.34,1.64-1.73
							c0.59-0.39,1.34-0.58,2.26-0.58c0.91,0,1.71,0.3,2.4,0.88c0.69,0.58,1.03,1.37,1.02,2.37c0,0.55-0.15,1.07-0.43,1.56
							c-0.28,0.5-0.79,1.13-1.54,1.9l-1.92,1.97l4.17,0.02l-0.01,2.12l-7.45-0.04l0.01-1.76l3.12-3.16
							C259.07,214.73,259.51,214.23,259.78,213.85z"/>
						<path class="st6" d="M268.8,220.47c-1.46-0.01-2.55-0.51-3.28-1.51c-0.72-1-1.07-2.32-1.07-3.98
							c0.01-1.66,0.38-2.98,1.11-3.97c0.73-0.99,1.83-1.48,3.29-1.47c1.46,0.01,2.55,0.51,3.27,1.51c0.72,1,1.08,2.33,1.07,3.98
							s-0.38,2.98-1.11,3.97C271.36,219.99,270.26,220.48,268.8,220.47z M267.29,212.45c-0.34,0.64-0.51,1.49-0.51,2.55
							c-0.01,1.06,0.16,1.91,0.49,2.56c0.33,0.65,0.85,0.97,1.55,0.98c0.71,0,1.23-0.32,1.56-0.96c0.34-0.64,0.51-1.5,0.51-2.55
							c0.01-1.06-0.16-1.91-0.49-2.56c-0.33-0.65-0.85-0.97-1.55-0.98C268.14,211.48,267.62,211.8,267.29,212.45z"/>
					</g>
					<g>
						<path class="st6" d="M298.73,214.05c0.27-0.38,0.4-0.74,0.41-1.09c0-0.35-0.11-0.65-0.34-0.89c-0.23-0.24-0.53-0.36-0.89-0.36
							c-0.67,0-1.3,0.47-1.9,1.41l-1.89-1.13c0.5-0.76,1.04-1.34,1.64-1.73c0.59-0.39,1.34-0.58,2.26-0.58c0.91,0,1.71,0.3,2.4,0.88
							c0.69,0.58,1.03,1.37,1.02,2.37c0,0.55-0.15,1.07-0.43,1.56c-0.28,0.5-0.79,1.13-1.54,1.9l-1.92,1.97l4.17,0.02l-0.01,2.12
							l-7.45-0.04l0.01-1.76l3.12-3.16C298.01,214.93,298.46,214.43,298.73,214.05z"/>
						<path class="st6" d="M303.05,209.95l4.28,0.02l-0.05,10.57l-2.27-0.01l0.04-8.56l-2.01-0.01L303.05,209.95z"/>
					</g>
					<g>
						<path class="st8" d="M61.08,238.21c0.27-0.38,0.41-0.74,0.41-1.09c0-0.35-0.11-0.65-0.34-0.89c-0.23-0.24-0.53-0.36-0.89-0.36
							c-0.67,0-1.3,0.47-1.9,1.41l-1.89-1.13c0.5-0.76,1.04-1.34,1.64-1.73c0.59-0.39,1.34-0.58,2.26-0.58c0.91,0,1.71,0.3,2.4,0.88
							c0.69,0.58,1.03,1.37,1.02,2.37c0,0.55-0.15,1.07-0.42,1.56c-0.28,0.5-0.79,1.13-1.54,1.9l-1.92,1.97l4.17,0.02l-0.01,2.12
							l-7.45-0.04l0.01-1.76l3.12-3.16C60.36,239.09,60.81,238.59,61.08,238.21z"/>
						<path class="st8" d="M70.23,238.26c0.27-0.38,0.4-0.74,0.41-1.09c0-0.35-0.11-0.65-0.34-0.89c-0.23-0.24-0.53-0.36-0.89-0.36
							c-0.67,0-1.3,0.47-1.9,1.41l-1.89-1.13c0.5-0.76,1.04-1.34,1.64-1.73c0.59-0.39,1.34-0.58,2.26-0.58c0.91,0,1.71,0.3,2.4,0.88
							c0.69,0.58,1.03,1.37,1.02,2.37c0,0.55-0.15,1.07-0.43,1.56c-0.28,0.5-0.79,1.13-1.54,1.9l-1.92,1.97l4.17,0.02l-0.01,2.12
							l-7.45-0.04l0.01-1.76l3.12-3.16C69.52,239.14,69.96,238.64,70.23,238.26z"/>
					</g>
					<g>
						<path class="st6" d="M101.51,238.24c0.27-0.38,0.4-0.74,0.41-1.09c0-0.35-0.11-0.65-0.34-0.89c-0.23-0.24-0.53-0.36-0.89-0.36
							c-0.67,0-1.3,0.47-1.9,1.41l-1.89-1.13c0.5-0.76,1.04-1.34,1.64-1.73c0.59-0.39,1.34-0.58,2.26-0.58c0.91,0,1.71,0.3,2.4,0.88
							c0.69,0.58,1.03,1.37,1.02,2.37c0,0.55-0.15,1.07-0.43,1.56c-0.28,0.5-0.79,1.13-1.54,1.9l-1.92,1.97l4.17,0.02l-0.01,2.12
							l-7.45-0.04l0.01-1.76l3.12-3.16C100.79,239.12,101.24,238.62,101.51,238.24z"/>
						<path class="st6" d="M106.49,236.16l0.01-2.01l6.47,0.03l-0.01,1.63l-2.18,2.45c0.85,0.14,1.5,0.5,1.96,1.08
							c0.46,0.57,0.69,1.23,0.69,1.98c-0.01,1.11-0.39,1.98-1.14,2.6c-0.76,0.63-1.72,0.94-2.89,0.93
							c-1.17-0.01-2.35-0.42-3.55-1.26l0.98-1.87c0.99,0.71,1.89,1.07,2.67,1.07c0.47,0,0.86-0.11,1.17-0.34
							c0.31-0.23,0.46-0.57,0.47-1c0-0.44-0.17-0.79-0.52-1.05c-0.35-0.26-0.84-0.39-1.46-0.39c-0.33,0-0.8,0.09-1.41,0.28
							l0.01-1.74l2.04-2.38L106.49,236.16z"/>
					</g>
					<g>
						<path class="st6" d="M140.99,238.45c0.27-0.38,0.41-0.74,0.41-1.09c0-0.35-0.11-0.65-0.34-0.89
							c-0.23-0.24-0.53-0.36-0.89-0.36c-0.67,0-1.3,0.47-1.9,1.41l-1.89-1.13c0.5-0.76,1.04-1.34,1.64-1.73
							c0.59-0.39,1.34-0.58,2.26-0.58c0.91,0,1.71,0.3,2.4,0.88c0.69,0.58,1.03,1.37,1.02,2.37c0,0.55-0.15,1.07-0.42,1.56
							c-0.28,0.5-0.79,1.13-1.54,1.9l-1.92,1.97l4.17,0.02l-0.01,2.12l-7.46-0.04l0.01-1.75l3.12-3.16
							C140.27,239.33,140.72,238.82,140.99,238.45z"/>
						<path class="st6" d="M149.61,240.37l0.01-1.85l2.27,0.01l-0.01,1.85l1.19,0.01l-0.01,2.04l-1.19-0.01l-0.01,2.53l-2.27-0.01
							l0.01-2.53l-4.25-0.02l0.01-1.8l3.8-6.23l2.57,0.01l-3.62,5.99L149.61,240.37z"/>
					</g>
					<g>
						<path class="st6" d="M180.5,238.65c0.27-0.38,0.4-0.74,0.41-1.09c0-0.35-0.11-0.65-0.34-0.89c-0.23-0.24-0.53-0.36-0.89-0.36
							c-0.67,0-1.3,0.47-1.9,1.41l-1.89-1.13c0.5-0.76,1.04-1.34,1.64-1.73c0.59-0.39,1.34-0.58,2.26-0.58c0.91,0,1.71,0.3,2.4,0.88
							c0.69,0.58,1.03,1.37,1.02,2.37c0,0.55-0.15,1.07-0.42,1.56c-0.28,0.5-0.79,1.13-1.54,1.9l-1.92,1.97l4.17,0.02l-0.01,2.12
							l-7.46-0.04l0.01-1.76l3.12-3.16C179.78,239.53,180.23,239.03,180.5,238.65z"/>
						<path class="st6" d="M192.01,234.59l-0.01,2.04l-4.17-0.02l-0.01,1.77c0.31-0.09,0.67-0.13,1.07-0.13
							c1.02,0.01,1.89,0.32,2.63,0.93c0.73,0.62,1.1,1.45,1.09,2.49c-0.01,1.04-0.39,1.9-1.15,2.58c-0.77,0.68-1.71,1.01-2.83,1
							c-1.43-0.01-2.62-0.54-3.58-1.61l1.25-1.72c0.09,0.09,0.21,0.2,0.36,0.34c0.15,0.13,0.43,0.31,0.83,0.53
							c0.4,0.22,0.8,0.33,1.21,0.33c0.4,0,0.76-0.12,1.07-0.36c0.32-0.24,0.47-0.6,0.48-1.07c0-0.47-0.17-0.84-0.5-1.1
							c-0.34-0.26-0.77-0.39-1.31-0.39c-0.53,0-1.16,0.19-1.86,0.57l-0.98-1.06l0.03-5.16L192.01,234.59z"/>
					</g>
					<g>
						<path class="st6" d="M220.05,238.85c0.27-0.38,0.4-0.74,0.41-1.09c0-0.35-0.11-0.65-0.34-0.89c-0.23-0.24-0.53-0.36-0.89-0.36
							c-0.67,0-1.3,0.47-1.9,1.41l-1.89-1.13c0.5-0.76,1.04-1.34,1.64-1.73c0.59-0.39,1.34-0.58,2.26-0.58c0.91,0,1.71,0.3,2.4,0.88
							c0.69,0.58,1.03,1.37,1.02,2.37c0,0.55-0.15,1.07-0.43,1.56c-0.28,0.5-0.79,1.13-1.54,1.9l-1.92,1.97l4.17,0.02l-0.01,2.12
							l-7.45-0.04l0.01-1.76l3.12-3.16C219.33,239.74,219.78,239.23,220.05,238.85z"/>
						<path class="st6" d="M229.25,236.57c-0.66,0-1.16,0.21-1.52,0.65c-0.36,0.44-0.58,1.03-0.67,1.79
							c0.66-0.42,1.36-0.63,2.09-0.63c0.99,0.01,1.81,0.33,2.47,0.98c0.66,0.65,0.98,1.51,0.98,2.58c-0.01,1.07-0.36,1.93-1.08,2.57
							c-0.71,0.64-1.61,0.96-2.69,0.95c-0.75,0-1.39-0.15-1.94-0.44c-0.55-0.29-0.97-0.69-1.27-1.21c-0.6-1-0.9-2.25-0.89-3.76
							c0.01-0.97,0.13-1.82,0.37-2.55c0.24-0.73,0.57-1.31,0.99-1.73c0.81-0.84,1.81-1.26,3-1.25c0.49,0,0.96,0.08,1.41,0.23
							c0.45,0.15,0.79,0.3,1.03,0.45c0.24,0.15,0.51,0.35,0.8,0.58l-1.13,1.66c-0.06-0.06-0.15-0.14-0.26-0.24
							c-0.12-0.1-0.34-0.23-0.69-0.4C229.9,236.65,229.57,236.57,229.25,236.57z M228.92,240.37c-0.47,0-0.86,0.14-1.18,0.41
							c-0.32,0.27-0.48,0.64-0.48,1.08c0,0.44,0.15,0.82,0.45,1.14c0.3,0.32,0.68,0.48,1.13,0.48c0.45,0,0.83-0.14,1.14-0.42
							c0.3-0.28,0.46-0.65,0.46-1.09c0-0.45-0.13-0.83-0.4-1.14C229.76,240.53,229.39,240.38,228.92,240.37z"/>
					</g>
					<g>
						<path class="st6" d="M259.44,239.06c0.27-0.38,0.4-0.74,0.41-1.09c0-0.35-0.11-0.65-0.34-0.89c-0.23-0.24-0.53-0.36-0.89-0.36
							c-0.67,0-1.3,0.47-1.9,1.41l-1.89-1.13c0.5-0.76,1.04-1.34,1.64-1.73c0.59-0.39,1.34-0.58,2.26-0.58c0.91,0,1.71,0.3,2.4,0.88
							c0.69,0.58,1.03,1.37,1.02,2.37c0,0.55-0.15,1.07-0.43,1.56c-0.28,0.5-0.79,1.13-1.54,1.9l-1.92,1.97l4.17,0.02l-0.01,2.12
							l-7.45-0.04l0.01-1.75l3.12-3.16C258.73,239.94,259.17,239.44,259.44,239.06z"/>
						<path class="st6" d="M263.99,238.35l0.02-3.39l7.64,0.04l-0.01,1.78l-4.33,8.76l-2.57-0.01l4.13-8.52l-2.66-0.01l-0.01,1.36
							L263.99,238.35z"/>
					</g>
					<g>
						<path class="st6" d="M299.05,239.26c0.27-0.38,0.41-0.74,0.41-1.09c0-0.35-0.11-0.65-0.34-0.89
							c-0.23-0.24-0.53-0.36-0.89-0.36c-0.67,0-1.3,0.47-1.9,1.41l-1.89-1.13c0.5-0.76,1.04-1.34,1.64-1.73
							c0.59-0.39,1.34-0.58,2.26-0.58c0.91,0,1.71,0.3,2.4,0.88c0.69,0.58,1.03,1.37,1.02,2.37c0,0.55-0.15,1.07-0.43,1.56
							c-0.28,0.5-0.79,1.13-1.54,1.9l-1.92,1.97l4.17,0.02l-0.01,2.12l-7.45-0.04l0.01-1.75l3.12-3.16
							C298.33,240.15,298.78,239.64,299.05,239.26z"/>
						<path class="st6" d="M305.14,235.76c0.7-0.55,1.58-0.82,2.63-0.82c1.05,0.01,1.92,0.29,2.61,0.85
							c0.69,0.56,1.04,1.24,1.03,2.05c0,0.81-0.32,1.51-0.95,2.09c0.87,0.68,1.31,1.57,1.3,2.67c0,0.93-0.38,1.71-1.13,2.34
							c-0.75,0.63-1.72,0.94-2.92,0.94c-1.2-0.01-2.17-0.33-2.91-0.97c-0.74-0.64-1.11-1.42-1.11-2.35c0.01-1.1,0.45-1.98,1.33-2.66
							c-0.63-0.6-0.95-1.3-0.94-2.11C304.08,236.99,304.43,236.31,305.14,235.76z M306.57,243.55c0.35,0.24,0.73,0.36,1.15,0.36
							c0.41,0,0.8-0.11,1.15-0.35c0.35-0.24,0.53-0.58,0.54-1.04c0-0.45-0.17-0.8-0.51-1.05c-0.34-0.24-0.73-0.37-1.16-0.37
							c-0.43,0-0.82,0.12-1.17,0.36c-0.34,0.24-0.52,0.59-0.52,1.04C306.04,242.97,306.22,243.31,306.57,243.55z M306.74,238.93
							c0.29,0.24,0.62,0.36,1,0.37c0.38,0,0.72-0.12,1.01-0.36c0.29-0.24,0.43-0.54,0.44-0.9c0-0.36-0.14-0.66-0.42-0.9
							c-0.28-0.24-0.62-0.36-1.01-0.37s-0.73,0.12-1.01,0.36c-0.28,0.24-0.43,0.54-0.43,0.9
							C306.31,238.39,306.45,238.69,306.74,238.93z"/>
					</g>
					<g>
						<path class="st8" d="M60.33,263.26c0.27-0.38,0.41-0.74,0.41-1.09c0-0.35-0.11-0.65-0.34-0.89c-0.23-0.24-0.53-0.36-0.89-0.36
							c-0.67,0-1.3,0.47-1.9,1.41l-1.89-1.13c0.5-0.76,1.04-1.34,1.64-1.73c0.59-0.39,1.34-0.58,2.26-0.58c0.91,0,1.71,0.3,2.4,0.88
							c0.69,0.58,1.03,1.37,1.02,2.37c0,0.55-0.15,1.07-0.43,1.56c-0.28,0.5-0.79,1.13-1.54,1.91l-1.92,1.97l4.17,0.02l-0.01,2.12
							l-7.45-0.04l0.01-1.76l3.12-3.16C59.61,264.14,60.06,263.64,60.33,263.26z"/>
						<path class="st8" d="M68.3,267.85c0.66,0,1.16-0.21,1.52-0.65c0.36-0.44,0.58-1.03,0.67-1.79c-0.65,0.43-1.34,0.64-2.09,0.64
							c-0.99-0.01-1.81-0.33-2.47-0.99c-0.66-0.65-0.98-1.51-0.98-2.58c0.01-1.07,0.37-1.93,1.08-2.57
							c0.71-0.65,1.61-0.97,2.69-0.96c0.75,0,1.39,0.15,1.94,0.44c0.55,0.29,0.98,0.69,1.29,1.21c0.59,1,0.88,2.25,0.87,3.76
							c-0.01,0.97-0.13,1.82-0.37,2.55c-0.24,0.73-0.56,1.31-0.97,1.73c-0.83,0.84-1.84,1.26-3.02,1.26c-0.49,0-0.97-0.08-1.42-0.23
							c-0.45-0.15-0.79-0.3-1.03-0.44c-0.23-0.15-0.5-0.34-0.8-0.57l1.19-1.66c0.07,0.06,0.16,0.14,0.28,0.23
							c0.12,0.1,0.34,0.23,0.67,0.39C67.69,267.76,68.01,267.85,68.3,267.85z M68.64,264.04c0.47,0,0.86-0.13,1.17-0.4
							c0.31-0.27,0.47-0.63,0.47-1.07c0-0.44-0.15-0.83-0.45-1.15c-0.3-0.32-0.68-0.49-1.13-0.49c-0.45,0-0.82,0.14-1.12,0.42
							c-0.29,0.29-0.43,0.65-0.44,1.09c0,0.44,0.13,0.82,0.39,1.13C67.81,263.88,68.18,264.04,68.64,264.04z"/>
					</g>
					<g>
						<path class="st6" d="M95.73,261.34l0.01-2.01l6.47,0.03l-0.01,1.63l-2.18,2.45c0.85,0.14,1.5,0.5,1.96,1.08
							c0.46,0.57,0.69,1.23,0.69,1.98c-0.01,1.11-0.39,1.98-1.14,2.6c-0.76,0.63-1.72,0.94-2.89,0.93
							c-1.17-0.01-2.35-0.43-3.55-1.26l0.98-1.87c0.99,0.71,1.89,1.07,2.67,1.07c0.47,0,0.86-0.11,1.17-0.34
							c0.31-0.23,0.46-0.56,0.47-1c0-0.44-0.17-0.79-0.52-1.05c-0.35-0.26-0.84-0.39-1.46-0.39c-0.33,0-0.8,0.09-1.41,0.28
							l0.01-1.74l2.04-2.38L95.73,261.34z"/>
						<path class="st6" d="M108.71,270.08c-1.46-0.01-2.55-0.51-3.27-1.51c-0.72-1-1.08-2.32-1.07-3.98
							c0.01-1.66,0.38-2.98,1.11-3.97c0.73-0.99,1.83-1.48,3.29-1.47c1.46,0.01,2.55,0.51,3.27,1.51c0.72,1,1.08,2.33,1.07,3.98
							c-0.01,1.66-0.38,2.98-1.11,3.97C111.27,269.6,110.17,270.09,108.71,270.08z M107.19,262.06c-0.34,0.64-0.51,1.49-0.51,2.55
							c-0.01,1.06,0.16,1.91,0.49,2.56c0.33,0.65,0.85,0.97,1.55,0.98c0.71,0,1.23-0.32,1.56-0.96c0.34-0.64,0.51-1.5,0.51-2.55
							c0.01-1.06-0.16-1.91-0.49-2.56c-0.33-0.65-0.85-0.97-1.55-0.98C108.05,261.1,107.53,261.42,107.19,262.06z"/>
					</g>
				</g>
				<g>
					<g>
						<path class="st8" d="M79.1,86.32c0,2.47-2,4.47-4.47,4.47c-2.47,0-4.47-2-4.47-4.47s2-4.47,4.47-4.47
							C77.1,81.85,79.1,83.85,79.1,86.32z"/>
						<g>
							<path class="st6" d="M74.86,88.15l-0.46,0c-1.09,0-1.98-0.89-1.98-1.98l0-18.14c0-1.09,0.89-1.98,1.98-1.98l0.46,0
								c1.09,0,1.98,0.89,1.98,1.98l0,18.14C76.84,87.26,75.96,88.15,74.86,88.15z"/>
						</g>
					</g>
					<g>
						<path class="st8" d="M111.75,86.32c0,2.47-2,4.47-4.47,4.47s-4.47-2-4.47-4.47s2-4.47,4.47-4.47S111.75,83.85,111.75,86.32z"
							/>
						<g>
							<path class="st6" d="M107.51,88.15l-0.46,0c-1.09,0-1.98-0.89-1.98-1.98l0-18.14c0-1.09,0.89-1.98,1.98-1.98l0.46,0
								c1.09,0,1.98,0.89,1.98,1.98l0,18.14C109.49,87.26,108.61,88.15,107.51,88.15z"/>
						</g>
					</g>
					<g>
						<path class="st8" d="M144.4,86.32c0,2.47-2,4.47-4.47,4.47c-2.47,0-4.47-2-4.47-4.47s2-4.47,4.47-4.47
							C142.4,81.85,144.4,83.85,144.4,86.32z"/>
						<g>
							<path class="st6" d="M140.16,88.15l-0.46,0c-1.09,0-1.98-0.89-1.98-1.98l0-18.14c0-1.09,0.89-1.98,1.98-1.98l0.46,0
								c1.09,0,1.98,0.89,1.98,1.98l0,18.14C142.14,87.26,141.26,88.15,140.16,88.15z"/>
						</g>
					</g>
					<g>
						<path class="st8" d="M177.05,86.32c0,2.47-2,4.47-4.47,4.47c-2.47,0-4.47-2-4.47-4.47s2-4.47,4.47-4.47
							C175.05,81.85,177.05,83.85,177.05,86.32z"/>
						<g>
							<path class="st6" d="M172.81,88.15l-0.46,0c-1.09,0-1.98-0.89-1.98-1.98l0-18.14c0-1.09,0.89-1.98,1.98-1.98l0.46,0
								c1.09,0,1.98,0.89,1.98,1.98l0,18.14C174.79,87.26,173.91,88.15,172.81,88.15z"/>
						</g>
					</g>
					<g>
						<path class="st8" d="M209.7,86.32c0,2.47-2,4.47-4.47,4.47c-2.47,0-4.47-2-4.47-4.47s2-4.47,4.47-4.47
							C207.7,81.85,209.7,83.85,209.7,86.32z"/>
						<g>
							<path class="st6" d="M205.46,88.15l-0.46,0c-1.09,0-1.98-0.89-1.98-1.98l0-18.14c0-1.09,0.89-1.98,1.98-1.98l0.46,0
								c1.09,0,1.98,0.89,1.98,1.98l0,18.14C207.44,87.26,206.55,88.15,205.46,88.15z"/>
						</g>
					</g>
					<g>
						<path class="st8" d="M242.35,86.32c0,2.47-2,4.47-4.47,4.47s-4.47-2-4.47-4.47s2-4.47,4.47-4.47S242.35,83.85,242.35,86.32z"
							/>
						<g>
							<path class="st6" d="M238.11,88.15l-0.46,0c-1.09,0-1.98-0.89-1.98-1.98l0-18.14c0-1.09,0.89-1.98,1.98-1.98l0.46,0
								c1.09,0,1.98,0.89,1.98,1.98l0,18.14C240.09,87.26,239.2,88.15,238.11,88.15z"/>
						</g>
					</g>
					<g>
						<path class="st8" d="M275,86.32c0,2.47-2,4.47-4.47,4.47c-2.47,0-4.47-2-4.47-4.47s2-4.47,4.47-4.47
							C273,81.85,275,83.85,275,86.32z"/>
						<g>
							<path class="st6" d="M270.76,88.15l-0.46,0c-1.09,0-1.98-0.89-1.98-1.98l0-18.14c0-1.09,0.89-1.98,1.98-1.98l0.46,0
								c1.09,0,1.98,0.89,1.98,1.98l0,18.14C272.74,87.26,271.85,88.15,270.76,88.15z"/>
						</g>
					</g>
					<g>
						<path class="st8" d="M307.65,86.32c0,2.47-2,4.47-4.47,4.47c-2.47,0-4.47-2-4.47-4.47s2-4.47,4.47-4.47
							C305.65,81.85,307.65,83.85,307.65,86.32z"/>
						<g>
							<path class="st6" d="M303.41,88.15l-0.46,0c-1.09,0-1.98-0.89-1.98-1.98l0-18.14c0-1.09,0.89-1.98,1.98-1.98l0.46,0
								c1.09,0,1.98,0.89,1.98,1.98l0,18.14C305.39,87.26,304.5,88.15,303.41,88.15z"/>
						</g>
					</g>
					<g>
						<path class="st8" d="M340.3,86.32c0,2.47-2,4.47-4.47,4.47c-2.47,0-4.47-2-4.47-4.47s2-4.47,4.47-4.47
							C338.3,81.85,340.3,83.85,340.3,86.32z"/>
						<g>
							<path class="st6" d="M336.06,88.15l-0.46,0c-1.09,0-1.98-0.89-1.98-1.98l0-18.14c0-1.09,0.89-1.98,1.98-1.98l0.46,0
								c1.09,0,1.98,0.89,1.98,1.98l0,18.14C338.04,87.26,337.15,88.15,336.06,88.15z"/>
						</g>
					</g>
					<g>
						<path class="st8" d="M372.95,86.32c0,2.47-2,4.47-4.47,4.47c-2.47,0-4.47-2-4.47-4.47s2-4.47,4.47-4.47
							C370.95,81.85,372.95,83.85,372.95,86.32z"/>
						<g>
							<path class="st6" d="M368.71,88.15l-0.46,0c-1.09,0-1.98-0.89-1.98-1.98l0-18.14c0-1.09,0.89-1.98,1.98-1.98l0.46,0
								c1.09,0,1.98,0.89,1.98,1.98l0,18.14C370.69,87.26,369.8,88.15,368.71,88.15z"/>
						</g>
					</g>
				</g>
			</g>
		</g>
		<g>
			<defs>
				<path id="SVGID_1_" d="M440.77,278.3c-7.05-17.81-9.79-35.4-4.53-57.75c4.28-18.18,10.96-35.96,12.18-54.59
					c7.1-108.57-58.02-141.48-134.98-115.57c-24.66,8.3-79.22,24.87-105.76,26.88c-48.8,3.69-80.47-11.68-108.51-12.09
					c-49.9-0.73-92.89,67.02-66.05,111.77c8.72,14.53,14.57,31.72,25.79,44.42c23.75,26.88,9.26,65.1,0.18,100.05
					c-5.68,21.88-18.61,45.33-6.03,78.29c3.09,8.1,12.82,13.64,15.66,21.23c10.31,27.5,36.47,46.63,69.11,47.38
					c43.9,1.01,81.28-25.78,120.45-41.5c19.39-7.78,39.66-13.2,60.72-11.34c25.17,2.22,47.82,15.04,73.43,16.37
					c32.39,1.69,65.83-14.69,77.61-46.24c10.68-28.59-2.64-55.21-16.1-80.1C448.8,295.98,444.25,287.11,440.77,278.3z"/>
			</defs>
			<clipPath id="SVGID_00000006708237160227204070000018251609280432664463_">
				<use xlink:href="#SVGID_1_"  style="overflow:visible;"/>
			</clipPath>
			<g style="clip-path:url(#SVGID_00000006708237160227204070000018251609280432664463_);">
				<g>
					<g>
						<path class="st13" d="M189.69,250.36c2.4,5.91-30.49,6.98-26.75-0.49c3.74-7.48,3.79-20.56,3.79-20.56h21.39
							C188.12,229.31,187.3,244.45,189.69,250.36z"/>
						<path class="st14" d="M171.2,229.31c0.6,6.57,5,10.52,12.01,12.94c1.64,0.57,3.39,1.02,5.12,1.26
							c-0.62-6.55-0.2-14.2-0.2-14.2H171.2z"/>
						<path class="st13" d="M199.12,209.25c-0.13-1.2-1.1-6.25-1.7-9.27c-0.13-0.72-0.27-1.41-0.41-2.08
							c-0.03-0.13-0.04-0.22-0.04-0.22s0,0.01,0,0.01c-2.82-12.78-9.06-17.18-18.04-17.18c-11.71,0-21.2,13.3-21.2,29.71
							c0,16.41,13.91,24.32,25.45,26.34c12.97,2.27,15.56,0.63,16.26-7.1c0,0,0,0,0-0.01c1.15-3.23,0.79-9.39,2.8-10.95
							C204.26,216.96,199.3,210.99,199.12,209.25z"/>
						<path class="st15" d="M206.34,183.22c-1.02-3.29-4.53-1.44-7.11,0.51c-0.06-0.24,7.57-4.9,5.26-6.51
							c-3.62-2.53-7.34,2.3-7.58,2.09c2.23-2.38,1.69-2.67-0.11-3.21c-0.68-0.2-2.96-0.02-5.54,1.43c-2.39,1.34-5.06,2.11-7.79,1.99
							c-2.61-0.12-6.28-0.39-13.01-0.71c-15.45-0.72-17.37,13.77-17.37,13.77s-6.35,4.79-5.51,14.85
							c0.84,10.06,18.68,25.63,18.68,25.63s7.67,3.23,15.57-3.71c7.91-6.95,3.83-11.74,7.27-15.46c3.44-3.73,0.04-5.26-0.68-11.48
							c-0.72-6.23,7.73-7.85,7.73-7.85C205.64,187.97,206.89,184.98,206.34,183.22z"/>
						<path class="st13" d="M189.3,212.85c1.46,2.85,0.76,6.12-1.56,7.31c-2.32,1.19-5.38-0.16-6.84-3.01
							c-1.46-2.85-0.76-6.12,1.56-7.31C184.78,208.66,187.84,210,189.3,212.85z"/>
					</g>
					<g>
						<polygon class="st9" points="209.77,465.92 143.15,465.92 133.83,396.86 219.09,396.86 						"/>
						<path class="st16" d="M167.36,414.43c0,0,0.99,8.53,8.12,17.55l0.12,33.93"/>
					</g>
					<g>
						<path class="st13" d="M256.43,178.12c0,0-3.42,2.4-3.6,5.81c-0.15,2.77,0.78,8.3,2.4,9.92c1.62,1.62,2.28,0.5,2.28,0.5
							L256.43,178.12z"/>
						<path class="st13" d="M268.03,202.83c0,0,1.51-5.28,2.64-17.72c0.16-1.81,1.05-5.44-0.88-6.71c-0.41-0.27-1.88-1.27-2.54,0.74
							c0.36-2.48-2.87-3.29-3.33-0.84c-0.05-2.65-3.34-2.56-3.73-0.29c0.12-3.08,0-4.42,0-7.7s-0.28-5.17-1.32-5.26
							c-1.03-0.09-2.26-0.96-3.79,15.69c-0.35,3.8-0.71,7.56-0.58,9.97c0.22,4.23,0.8,7.14,2.42,8.24
							C261.59,203.45,268.03,202.83,268.03,202.83z"/>
						<g>
							<path class="st14" d="M117.9,355.94l9.45-1.17c1.73-0.07,3.35,0.99,4.18,2.74l2.14,3.74L117.9,355.94z"/>
							<path class="st13" d="M118.2,355.22c0,0,18.74,4.93,18.59,7.07c-0.24,3.46-3.15,10.54-4.29,12.43
								c-0.56,0.93-1.49,1.73-4.83,1.14c-2.36-0.42-6.12-1.63-8.57-3.42c-4.44-3.24-5.27-6.81-5.27-6.81L118.2,355.22z"/>
							<path class="st14" d="M135.5,367.63c0.67-1.98,1.19-3.94,1.29-5.33c0.15-2.14-18.59-7.07-18.59-7.07l-0.91,2.18
								C123.18,360.96,129.25,364.58,135.5,367.63z"/>
							<g>
								<path class="st14" d="M136.06,365.84c-0.3,0-0.61-0.07-0.9-0.2l-5.55-2.62c-1.06-0.5-1.51-1.76-1.01-2.82
									c0.5-1.06,1.76-1.51,2.82-1.01l5.55,2.62c1.06,0.5,1.51,1.76,1.01,2.82C137.61,365.4,136.85,365.84,136.06,365.84z"/>
								<path class="st13" d="M134.61,369.78c-0.3,0-0.61-0.07-0.9-0.2l-5.55-2.62c-1.06-0.5-1.51-1.76-1.01-2.82
									c0.5-1.06,1.76-1.51,2.82-1.01l5.55,2.62c1.06,0.5,1.51,1.76,1.01,2.82C136.16,369.33,135.4,369.78,134.61,369.78z"/>
								<path class="st14" d="M136.72,367.73c0.02-0.82-0.43-1.61-1.21-1.98l-5.55-2.62c-0.85-0.4-1.82-0.18-2.43,0.46
									C130.5,365.14,133.61,366.57,136.72,367.73z"/>
								<path class="st13" d="M133.16,373.72c-0.3,0-0.61-0.07-0.9-0.2l-5.55-2.62c-1.06-0.5-1.51-1.76-1.01-2.82
									c0.5-1.06,1.76-1.51,2.82-1.01l5.55,2.62c1.06,0.5,1.51,1.76,1.01,2.82C134.71,373.27,133.95,373.72,133.16,373.72z"/>
								<path class="st13" d="M131.71,377.66c-0.3,0-0.61-0.07-0.9-0.2l-5.55-2.62c-1.06-0.5-1.51-1.76-1.01-2.82
									c0.5-1.06,1.76-1.51,2.82-1.01l5.55,2.62c1.06,0.5,1.51,1.76,1.01,2.82C133.27,377.21,132.51,377.66,131.71,377.66z"/>
							</g>
						</g>
						<g>
							<path class="st17" d="M153.77,251.91c-0.45-0.22,8.87-8.67,8.87-8.67s5.29,1.54,28.35,1.38l9.33,8.14
								C200.32,252.76,181.95,265.81,153.77,251.91z"/>
							<path class="st17" d="M254.33,195.44l0.15,4.96c-0.5,12.83-10.61,43.75-10.61,43.75l-22.5,8.15
								c-18.97-3.07-31.68-1.94-31.68-1.94l-26.75-0.49c0,0-33.84,8.91-40.13,14.72c-6.29,5.81-50.52,55.06-50.76,61.84
								c-0.24,6.78,41.79,39.21,41.79,39.21l4.36-10.41c0,0-6.29-16.83-18.37-30.32l29.11-17.56c1.45,18.23,1.55,25.52,2.9,42.68
								c2.32,29.52-1.44,57.42-1.44,57.42c49.65,16.46,96.33-1.09,96.33-1.09s-5.87-28.64-7.3-57.28
								c-1.43-28.64,8.92-55.77,8.92-55.77s35.61-27.11,36.44-35.9c0.84-8.79,4.43-48.42,4.43-48.42l0.75-8.67L254.33,195.44z"/>
							<path class="st18" d="M256.71,257.36c-2.93,5.9-30.87,27.3-34.09,28.97c-7.97,4.14-9.02,10.92-8.79,19.32
								c0.19,6.93,1.29,13.8,1.5,20.73c0.39,12.93,0.86,26.46,5.29,38.59c-0.51-5.17-0.93-10.53-1.2-15.89
								c-1.43-28.64,8.92-55.77,8.92-55.77s35.61-27.11,36.44-35.9c0.84-8.79,4.43-48.42,4.43-48.42l0.75-8.67l-1.66-0.52
								C267.48,204.42,259.07,252.62,256.71,257.36z"/>
							<path class="st18" d="M148.49,412.06c-5.71-9.54-7.25-19.69-8.17-31.25c-1.33-16.74-1.36-33.51-2.32-50.26
								c-0.41-7.25-0.94-14.22-0.61-21.5c0.24-5.25,0.56-10.61-0.48-15.75c-6.96,6.02-15.75,9.79-23.4,14.82
								c-6.49,4.27-17.44,7.64-21.03,15.05c-3.65,7.55,7.02,16.96,11.64,21.61c4.26,4.29,9.05,8.35,13,13.02l1.08-2.58
								c0,0-6.29-16.83-18.37-30.32l29.11-17.56c1.45,18.23,1.55,25.52,2.9,42.68c2.32,29.52-1.44,57.42-1.44,57.42
								C136.5,409.46,142.56,410.97,148.49,412.06z"/>
						</g>
						<path class="st18" d="M200.32,387.66c0,0-36.8,5.87-55.99-11.6C144.33,376.06,159.23,406.86,200.32,387.66z"/>
						<g>
							<path class="st18" d="M191.54,255.14c-2.37,1.82-5.21,2.98-8.12,3.72c-2.92,0.74-5.97,1.06-8.99,0.89
								c-3.01-0.23-6.03-0.7-8.84-1.79c-1.44-0.43-2.77-1.17-4.11-1.81c-1.31-0.71-2.55-1.56-3.74-2.43
								c1.47,0.34,2.82,0.86,4.23,1.22c1.41,0.33,2.78,0.78,4.19,1.02l2.09,0.43l2.11,0.3c0.7,0.12,1.4,0.18,2.1,0.24
								c0.7,0.05,1.4,0.16,2.11,0.15l2.11,0.09c0.71-0.02,1.41-0.05,2.12-0.05c1.41-0.03,2.82-0.16,4.24-0.31
								C185.86,256.48,188.68,255.95,191.54,255.14z"/>
						</g>
					</g>
				</g>
				<g>
					<g>
						<path class="st19" d="M120.39,443.7c0.64-3.26,4.48-14.4,4.13-17.68c-0.44-4.14-1.92-8.08-4.26-11.52
							c-8.3-12.2-12.16-10.03-14.83-18.66c-10.63-34.35-29.12-19.99-45.01-34.33c0,0-2.26,20.42,0.37,23.82
							c1.96,2.52,4.8,4.1,7.9,4.84c1.56,0.37,2.84,1.24,3.62,2.87c1.57,3.26,0.39,5.58-1.95,7.29c-3.64,2.66-5.45,7.22-4.25,11.57
							c2.69,9.74,9.45,14.98,18.31,15.33c11.83,0.46-9.69,53.97,43.74,39.04c0,0,16.29-13.34,2.79-34.08
							C130.98,434.14,119.79,446.76,120.39,443.7z M105.79,440.57c-0.51,1.21-2.06,1.69-3.21,1.16c-1.4-0.64-2.7-1.03-4.1-1.46
							c-1.3-0.39-2.14-1.39-1.94-2.81c0.17-1.19,1.6-2.31,2.81-1.94c1.78,0.54,3.59,1.06,5.28,1.84
							C105.85,437.92,106.29,439.37,105.79,440.57z M94.84,393.14c0.08,3.1-4.73,3.5-4.82,0.38c-0.05-1.94-0.07-3.91-0.69-5.77
							c-0.99-2.95,3.55-4.6,4.54-1.65C94.64,388.39,94.78,390.75,94.84,393.14z"/>
						<path class="st17" d="M60.39,361.72c-0.23,2.19-2.08,20.41,0.39,23.6c1.96,2.52,4.8,4.1,7.9,4.84
							c1.56,0.37,2.84,1.24,3.62,2.87c1.57,3.26,0.39,5.58-1.95,7.29c-3.64,2.66-5.45,7.22-4.25,11.57
							c2.69,9.74,9.45,14.98,18.31,15.33c11.83,0.46-9.69,53.97,43.74,39.04C128.16,466.26,96.71,396.76,60.39,361.72z
							 M105.79,440.57c-0.51,1.21-2.06,1.69-3.21,1.16c-1.4-0.64-2.7-1.03-4.1-1.46c-1.3-0.39-2.14-1.39-1.94-2.81
							c0.17-1.19,1.6-2.31,2.81-1.94c1.78,0.54,3.59,1.06,5.28,1.84C105.85,437.92,106.29,439.37,105.79,440.57z"/>
						<path class="st20" d="M147.55,513.38c-0.41-1.13-26.09-79.09-66.91-128.33"/>
						<path class="st20" d="M96.46,406.53c0,0-12.66,1.75-20.64-0.97"/>
						<path class="st20" d="M109.95,409.42c0,0-1.29,6.04-5.6,9.64"/>
						<path class="st20" d="M104.38,450.55c0,0,8.31,5,18.45,2.94"/>
						<path class="st20" d="M130.25,444.65c0,0,1,7.27-4.5,14.96"/>
					</g>
					<g>
						<path class="st19" d="M362.08,389.37c7.84-34.51,27.59-52.54,17.13-59.8c-10.66-7.4-43.96,19.7-45.65,43.87
							c-0.81,5.65,0.58,13.14-1.44,10.65c-6.39-7.91-6.01-13.33-8-24.44c-0.46-2.58-2.23-4.85-4.74-5.61
							c-2.75-0.83-5.78,0.14-9.06,3.9c-8.98,10.26-7.27,28.16-1.59,54.94c-1.17-1.81-2.73-3.48-4.85-4.4
							c-3.44-1.52-9.82-4.29-12.64-0.26c-2.46,3.53-0.83,9.8-0.17,13.63c2.24,12.99,13.14,20.34,21.96,29.1
							c2.12,2.1,4.12,4.29,5.84,6.65c3.14,4.29,4.7,11.4,11.01,11.91c4.19,0.34,8.5,0.01,12.66-0.54
							c6.02-0.78,10.83-3.92,12.03-10.18c0.51-2.66,15.36-11.9,18.84-13.87c24.04-13.59,0.37-25.28-14.91-11.61
							c12.02-20.62,19.5-25.09,25.34-31.9C417.33,373.13,392.37,355.67,362.08,389.37z M360.49,360.09
							c1.87-3.08,4.15-5.77,6.87-8.12c1.03-0.89,2.77-0.41,3.48,0.61c0.83,1.18,0.41,2.6-0.61,3.48c-2.03,1.76-3.84,3.89-5.24,6.19
							c-0.7,1.16-2.01,1.81-3.33,1.18C360.54,362.88,359.79,361.24,360.49,360.09z M316.36,400.7c-2.55-4.94-4.32-10.1-4.55-15.69
							c-0.13-3.21,4.85-3.63,4.98-0.42c0.21,5.16,1.9,9.83,4.26,14.38C322.54,401.84,317.82,403.52,316.36,400.7z M367.16,415.82
							c-1.58,1.15-3.14,2.34-4.42,3.83c-2.11,2.43-5.93-0.8-3.82-3.23c1.56-1.79,3.45-3.3,5.37-4.69
							C366.91,409.84,369.77,413.94,367.16,415.82z"/>
						<path class="st17" d="M378.43,329.13c-11.41-5.68-43.21,20.71-44.86,44.31c-0.81,5.65,0.58,13.14-1.44,10.65
							c-6.39-7.91-6.01-13.33-8-24.44c-0.46-2.58-2.23-4.85-4.74-5.61c-2.75-0.83-5.78,0.14-9.06,3.9
							c-8.98,10.26-7.27,28.16-1.59,54.94c-1.17-1.81-2.73-3.47-4.85-4.4c-3.44-1.52-9.82-4.29-12.64-0.26
							c-2.46,3.53-0.83,9.8-0.17,13.63c2.24,12.99,13.14,20.34,21.96,29.1c2.12,2.1,4.12,4.29,5.84,6.65
							c3.14,4.29,4.7,11.4,11.01,11.91c0.82,0.07,1.64,0.11,2.47,0.12C330.61,462.37,334.97,366.15,378.43,329.13z M316.36,400.7
							c-2.55-4.94-4.32-10.1-4.55-15.69c-0.13-3.21,4.85-3.63,4.98-0.42c0.21,5.16,1.9,9.83,4.26,14.38
							C322.54,401.84,317.82,403.52,316.36,400.7z"/>
						<g>
							<g>
								<path class="st5" d="M371.79,337.63c-2.12,1.59-4.04,3.68-5.75,5.82l-1.29,1.62c-0.43,0.54-0.8,1.13-1.2,1.69l-1.18,1.7
									l-0.59,0.85l-0.54,0.89l-2.14,3.56c-0.72,1.19-1.3,2.45-1.96,3.67c-0.63,1.24-1.32,2.44-1.89,3.71l-1.7,3.8
									c-0.55,1.27-1.18,2.51-1.66,3.82l-1.49,3.89l-1.49,3.89l-1.3,3.96l-1.29,3.96c-0.43,1.32-0.87,2.64-1.21,3.99l-2.19,8.05
									l-0.55,2.01l-0.46,2.03l-0.91,4.07c-0.59,2.72-1.26,5.42-1.78,8.15l-1.48,8.21c-0.47,2.74-1.05,5.46-1.38,8.23l-1.15,8.27
									l-0.58,4.13l-0.29,2.07l-0.21,2.08l-1.7,16.61l0,0.02c-0.04,0.38-0.38,0.66-0.77,0.62c-0.38-0.04-0.66-0.38-0.62-0.77l0,0
									l1.76-16.64l0.22-2.08l0.29-2.07l0.59-4.14l1.18-8.29c0.34-2.77,0.94-5.5,1.42-8.25l1.51-8.23
									c0.54-2.74,1.22-5.45,1.82-8.17l0.93-4.08l0.46-2.04l0.56-2.02l2.23-8.08c0.35-1.35,0.79-2.68,1.23-4l1.31-3.98l1.32-3.98
									l1.51-3.91l1.51-3.91c0.49-1.31,1.13-2.56,1.68-3.84l1.73-3.82c0.58-1.27,1.28-2.49,1.92-3.73c0.67-1.23,1.26-2.5,1.99-3.7
									l2.18-3.59l0.55-0.9l0.6-0.86l1.21-1.72c0.41-0.57,0.78-1.16,1.22-1.71l1.32-1.64c1.77-2.19,3.65-4.26,6-6
									c0.22-0.16,0.52-0.12,0.68,0.1c0.16,0.22,0.12,0.52-0.1,0.68L371.79,337.63z"/>
							</g>
							<path class="st21" d="M318.38,380.29c0,0,13.08,16.04,18.11,43.64"/>
							<path class="st21" d="M387.81,380.61c0,0-30.3,12.36-53.2,55.59"/>
							<path class="st21" d="M372.17,437.45c0,0-19.21,1.58-39.25,19.23"/>
							<path class="st21" d="M301.25,417.71c0,0,17.08,11.69,30.29,42.09"/>
						</g>
					</g>
					<g>
						<path class="st19" d="M233.53,423.69c-1.47-4.37-8.82-19-8.93-23.59c-0.15-5.78,1.15-11.48,3.74-16.65
							c9.19-18.33,14.89-16.05,16.98-28.42c8.32-49.25,36.42-32.88,55.67-55.55c0,0,6.87,27.7,3.87,32.87
							c-2.23,3.83-5.85,6.52-9.99,8.11c-2.08,0.8-3.68,2.23-4.46,4.61c-1.56,4.78,0.48,7.76,4.03,9.68
							c5.51,2.99,8.83,8.95,7.98,15.15c-1.91,13.91-10.25,22.37-22.4,24.47c-16.21,2.81,23.27,72.54-53.05,61.81
							c0,0-24.89-15.37-10.11-46.41C217.18,412.47,234.91,427.8,233.53,423.69z M253.05,416.69c0.92,1.58,3.15,1.95,4.64,1.01
							c1.81-1.14,3.53-1.92,5.38-2.77c1.71-0.78,2.69-2.31,2.16-4.23c-0.45-1.61-2.63-2.89-4.23-2.16c-2.35,1.07-4.74,2.12-6.93,3.5
							C252.48,413.05,252.14,415.13,253.05,416.69z M259.4,349.37c0.46,4.28,7.16,3.94,6.7-0.36c-0.29-2.68-0.62-5.4-0.11-8.07
							c0.82-4.24-5.73-5.67-6.56-1.43C258.8,342.8,259.05,346.07,259.4,349.37z"/>
						<path class="st17" d="M227.51,456.26c1.82-22.64,39.21-111.49,70.41-153.55c-19.04,17.92-44.72,5.63-52.6,52.33
							c-2.09,12.38-7.8,10.1-16.98,28.42c-2.59,5.17-3.89,10.87-3.74,16.65c0.12,4.59,7.46,19.22,8.93,23.59
							c1.38,4.1-16.34-11.22-16.66-13.92c-14.78,31.04,10.11,46.41,10.11,46.41C227.16,456.21,227.33,456.23,227.51,456.26z
							 M259.44,339.51c0.82-4.24,7.38-2.81,6.56,1.43c-0.52,2.67-0.18,5.39,0.11,8.07c0.46,4.3-6.25,4.64-6.7,0.36
							C259.05,346.07,258.8,342.8,259.44,339.51z"/>
						<path class="st22" d="M208.94,524.64c0.36-1.64,21.38-113.7,68.53-189.01"/>
						<path class="st22" d="M259.63,368.1c0,0,17.76,0.08,28.24-5.13"/>
						<path class="st22" d="M241.59,374.57c0,0,2.88,8.08,9.48,12.24"/>
						<path class="st22" d="M256.82,430.17c0,0-10.53,8.42-24.87,7.45"/>
						<path class="st22" d="M220.12,426.81c0,0-0.03,10.2,8.95,19.77"/>
					</g>
				</g>
			</g>
		</g>
		<g>
			<g>
				<path class="st2" d="M429.39,228.3c-29,0.22-55.42,0.43-79.57,0.61c-2.94-31.21-2.94-62.38,0-93.59
					c24.16,0.19,50.57,0.39,79.57,0.61C426.07,166.74,426.07,197.5,429.39,228.3z"/>
				<path class="st2" d="M433.39,224.3c-29,0.22-55.42,0.43-79.57,0.61c-2.94-31.21-2.94-62.38,0-93.59
					c24.16,0.19,50.57,0.39,79.57,0.61C430.07,162.74,430.07,193.5,433.39,224.3z"/>
				<g>
					<path class="st6" d="M381.98,142.64c-7.63-0.04-15.06-0.09-22.29-0.13c0.05-0.62,0.09-1.24,0.14-1.87
						c7.24,0.04,14.67,0.09,22.3,0.14C382.08,141.4,382.03,142.02,381.98,142.64z"/>
					<path class="st6" d="M422.81,155.19c-22.89-0.09-44.12-0.17-63.87-0.24c0.03-0.62,0.06-1.24,0.09-1.86
						c19.75,0.08,40.99,0.17,63.88,0.26C422.88,153.96,422.84,154.57,422.81,155.19z"/>
					<path class="st6" d="M422.34,167.46c-22.87-0.04-44.08-0.08-63.82-0.11c0.01-0.62,0.03-1.24,0.04-1.86
						c19.74,0.04,40.95,0.09,63.83,0.13C422.37,166.23,422.35,166.85,422.34,167.46z"/>
					<path class="st6" d="M422.21,179.72c-22.86,0.01-44.08,0.01-63.81,0.02c0-0.62,0-1.24,0-1.86c19.73,0,40.94,0,63.81,0
						C422.2,178.49,422.2,179.1,422.21,179.72z"/>
					<path class="st6" d="M422.43,191.98c-22.87,0.05-44.09,0.1-63.83,0.15c-0.02-0.62-0.03-1.24-0.05-1.86
						c19.74-0.04,40.95-0.08,63.82-0.13C422.39,190.75,422.41,191.36,422.43,191.98z"/>
					<path class="st6" d="M422.99,204.25c-22.89,0.1-44.13,0.19-63.88,0.28c-0.03-0.62-0.07-1.24-0.1-1.86
						c19.75-0.08,40.99-0.17,63.87-0.26C422.92,203.03,422.96,203.64,422.99,204.25z"/>
					<path class="st6" d="M423.91,216.56c-22.92,0.15-44.19,0.28-63.97,0.41c-0.05-0.62-0.1-1.25-0.14-1.87
						c19.78-0.12,41.04-0.25,63.95-0.39C423.8,215.33,423.85,215.95,423.91,216.56z"/>
				</g>
			</g>
			<g>
				<path class="st2" d="M446.72,327.64c-27.6,8.91-52.74,17.02-75.73,24.44c-12.16-28.9-21.51-58.63-28.06-89.29
					c23.1-7.07,48.36-14.79,76.1-23.27C425.09,269.91,434.31,299.26,446.72,327.64z"/>
				<path class="st2" d="M449.33,322.63c-27.6,8.91-52.74,17.02-75.73,24.44c-12.16-28.9-21.51-58.63-28.06-89.29
					c23.1-7.07,48.36-14.79,76.1-23.27C427.7,264.89,436.92,294.24,449.33,322.63z"/>
				<g>
					<path class="st6" d="M375.81,260.14c-7.29,2.24-14.39,4.43-21.3,6.56c-0.14-0.61-0.29-1.21-0.43-1.82
						c6.92-2.13,14.02-4.31,21.31-6.55C375.52,258.93,375.67,259.53,375.81,260.14z"/>
					<path class="st6" d="M418.52,259.86c-21.86,6.78-42.14,13.07-61,18.92c-0.16-0.6-0.31-1.2-0.47-1.8
						c18.87-5.84,39.15-12.13,61.02-18.9C418.21,258.67,418.36,259.27,418.52,259.86z"/>
					<path class="st6" d="M421.74,271.71c-21.83,6.82-42.08,13.14-60.92,19.03c-0.17-0.59-0.34-1.19-0.51-1.79
						c18.84-5.88,39.1-12.2,60.93-19.01C421.4,270.53,421.57,271.12,421.74,271.71z"/>
					<path class="st6" d="M425.29,283.45c-21.81,6.86-42.04,13.23-60.87,19.15c-0.19-0.59-0.37-1.18-0.56-1.77
						c18.82-5.92,39.06-12.27,60.87-19.13C424.92,282.28,425.11,282.86,425.29,283.45z"/>
					<path class="st6" d="M429.18,295.08c-21.8,6.91-42.03,13.32-60.85,19.28c-0.2-0.59-0.4-1.17-0.6-1.76
						c18.82-5.96,39.05-12.36,60.85-19.26C428.78,293.92,428.98,294.5,429.18,295.08z"/>
					<path class="st6" d="M433.4,306.62c-21.81,6.96-42.04,13.41-60.86,19.42c-0.22-0.58-0.43-1.16-0.65-1.75
						c18.82-6,39.05-12.45,60.86-19.4C432.96,305.47,433.18,306.04,433.4,306.62z"/>
					<path class="st6" d="M437.97,318.09c-21.82,7.01-42.07,13.52-60.9,19.57c-0.23-0.58-0.47-1.16-0.7-1.74
						c18.83-6.04,39.08-12.54,60.9-19.55C437.49,316.95,437.73,317.52,437.97,318.09z"/>
				</g>
			</g>
		</g>
	</g>
</g>
</svg>
